<?xml version="1.0" encoding="utf-8"?>
<!-- Generator: Adobe Illustrator 26.4.1, SVG Export Plug-In . SVG Version: 6.00 Build 0)  -->
<svg version="1.1" id="Layer_1" xmlns="http://www.w3.org/2000/svg" xmlns:xlink="http://www.w3.org/1999/xlink" x="0px" y="0px"
	 viewBox="0 0 200 200" style="enable-background:new 0 0 200 200;" xml:space="preserve">
<style type="text/css">
	.st0{fill:#3DBEB3;}
	.st1{fill:#862137;}
	.st2{fill:#373737;}
</style>
<g>
	<g>
		<path class="st0" d="M137.7558136,183.0958099h-14.8240967c-3.1657944,0-5.7325745,2.5667877-5.7325745,5.7325897
			c0,3.1657867,2.5667801,5.7325745,5.7325745,5.7325745h28.6629028c0.7466583,0,1.4898224-0.1525574,2.1906586-0.4426117
			c1.4013062-0.5811615,2.5181427-1.6980133,3.0993195-3.0993195c0.2897034-0.7008209,0.4425964-1.443985,0.4425964-2.1906433
			v-28.6629028c0-3.165802-2.5667725-5.7325897-5.7325745-5.7325897c-3.1657867,0-5.7325745,2.5667877-5.7325745,5.7325897
			v14.8240967l-35.0896683-35.0896606c-3.2525635-3.2525787-5.0887833-7.75354-5.0383987-12.4112625V79.9065704
			c0-3.1685944-2.5667801-5.7325745-5.7325821-5.7325745c-3.1657944,0-5.7325745,2.5639801-5.7325745,5.7325745v47.5205154
			c-0.0839767,7.6583633,2.9782486,15.159996,8.3973312,20.5790634L137.7558136,183.0958099z"/>
		<path class="st1" d="M43.1143608,191.0176544c0.5808144,1.4030457,1.6976585,2.5202484,3.1007156,3.1014099
			c0.7004776,0.2897034,1.4439888,0.4419098,2.1903038,0.4419098h28.6629028c3.1685944,0,5.7325745-2.5667877,5.7325745-5.7325745
			c0-3.165802-2.5639801-5.7325897-5.7325745-5.7325897H62.2441864l24.609787-24.609787
			c2.2392883-2.2392883,2.2392883-5.8669281,0-8.1062164c-1.1196442-1.1196442-2.58638-1.6794739-4.0531158-1.6794739
			c-1.4667282,0-2.9334641,0.5598297-4.0531082,1.6794739l-24.6097908,24.609787v-14.8240967
			c0-3.165802-2.5639839-5.7325897-5.7325783-5.7325897s-5.7325821,2.5667877-5.7325821,5.7325897v28.6629028
			C42.6727982,189.5743561,42.8246498,190.3175201,43.1143608,191.0176544z"/>
	</g>
	<path class="st2" d="M97.8067169,65.1028976c1.4028091,0.5814133,2.9825211,0.581665,4.3855743,0.0004959
		c0.7001648-0.2904587,1.3335342-0.70858,1.8612518-1.2363014l20.2677383-20.2677307
		c2.2405319-2.2405319,2.2385483-5.8685379,0-8.10709c-2.2385559-2.2385559-5.8665619-2.2405357-8.1070938,0l-10.4822235,10.4822159
		V11.1709919c0-3.1668329-2.5651321-5.7319674-5.7319641-5.7319674c-1.5834198,0-3.0164108,0.6412835-4.0535431,1.6784215
		c-1.0371399,1.037138-1.678421,2.47013-1.678421,4.053546v34.8034973L83.7858124,35.4922714
		c-2.2385559-2.2385559-5.8665543-2.2405357-8.1070938,0c-2.2405319,2.2405319-2.2385483,5.8685341,0,8.10709l20.2677383,20.2677307
		C96.4739304,64.3945694,97.1068039,64.8126907,97.8067169,65.1028976z"/>
</g>
<g>
</g>
<g>
</g>
<g>
</g>
<g>
</g>
<g>
</g>
<g>
</g>
</svg>
