<?xml version="1.0" encoding="utf-8"?>
<!-- Generator: Adobe Illustrator 24.1.2, SVG Export Plug-In . SVG Version: 6.00 Build 0)  -->
<svg version="1.1" id="Layer_1" xmlns="http://www.w3.org/2000/svg" xmlns:xlink="http://www.w3.org/1999/xlink" x="0px" y="0px"
	 viewBox="0 0 200 200" style="enable-background:new 0 0 200 200;" xml:space="preserve">
<style type="text/css">
	.st0{fill:#852236;}
	.st1{fill:#FF9F1C;}
	.st2{fill:#2EC4B6;}
	.st3{fill:#1B8ACB;}
</style>
<g>
	<g>
		<g>
			<path class="st0" d="M127.6,118.8h14.8c3.2,0,5.7-2.6,5.7-5.7c0-3.2-2.6-5.7-5.7-5.7h-28.7c-0.7,0-1.5,0.2-2.2,0.4
				c-1.4,0.6-2.5,1.7-3.1,3.1c-0.3,0.7-0.4,1.4-0.4,2.2v28.7c0,3.2,2.6,5.7,5.7,5.7c3.2,0,5.7-2.6,5.7-5.7v-14.8l35.1,35.1
				c3.3,3.3,5.1,7.8,5,12.4V187c0,3.2,2.6,5.7,5.7,5.7c3.2,0,5.7-2.6,5.7-5.7v-12.5c0.1-7.7-3-15.2-8.4-20.6L127.6,118.8z"/>
			<path class="st1" d="M91.2,110.9c-0.6-1.4-1.7-2.5-3.1-3.1c-0.7-0.3-1.4-0.4-2.2-0.4H57.2c-3.2,0-5.7,2.6-5.7,5.7
				c0,3.2,2.6,5.7,5.7,5.7H72l-24.6,24.6c-2.2,2.2-2.2,5.9,0,8.1c1.1,1.1,2.6,1.7,4.1,1.7c1.5,0,2.9-0.6,4.1-1.7l24.6-24.6v14.8
				c0,3.2,2.6,5.7,5.7,5.7s5.7-2.6,5.7-5.7v-28.7C91.6,112.4,91.4,111.6,91.2,110.9z"/>
		</g>
	</g>
	<g>
		<g>
			<path class="st2" d="M72.4,81.2H57.6c-3.2,0-5.7,2.6-5.7,5.7c0,3.2,2.6,5.7,5.7,5.7h28.7c0.7,0,1.5-0.2,2.2-0.4
				c1.4-0.6,2.5-1.7,3.1-3.1c0.3-0.7,0.4-1.4,0.4-2.2V58.2c0-3.2-2.6-5.7-5.7-5.7c-3.2,0-5.7,2.6-5.7,5.7v14.8L45.4,38
				c-3.3-3.3-5.1-7.8-5-12.4V13c0-3.2-2.6-5.7-5.7-5.7c-3.2,0-5.7,2.6-5.7,5.7v12.5c-0.1,7.7,3,15.2,8.4,20.6L72.4,81.2z"/>
			<path class="st3" d="M153.8,50.3c-0.6-1.4-1.7-2.5-3.1-3.1c-0.7-0.3-1.4-0.4-2.2-0.4h-28.7c-3.2,0-5.7,2.6-5.7,5.7
				c0,3.2,2.6,5.7,5.7,5.7h14.8l-24.6,24.6c-2.2,2.2-2.2,5.9,0,8.1c1.1,1.1,2.6,1.7,4.1,1.7c1.5,0,2.9-0.6,4.1-1.7l24.6-24.6v14.8
				c0,3.2,2.6,5.7,5.7,5.7s5.7-2.6,5.7-5.7V52.5C154.3,51.7,154.1,51,153.8,50.3z"/>
		</g>
	</g>
</g>
</svg>
